<svg xmlns="http://www.w3.org/2000/svg" width="18" height="19" viewBox="0 0 18 19" fill="none">
    <path
        d="M5.30592 16.1918C5.11004 15.9945 5 15.7268 5 15.4477C5 15.1686 5.11004 14.901 5.30592 14.7036L10.4779 9.49365L5.30592 4.28371C5.11559 4.0852 5.01027 3.81933 5.01266 3.54337C5.01504 3.2674 5.12492 3.00342 5.31865 2.80827C5.51237 2.61313 5.77443 2.50244 6.04839 2.50004C6.32235 2.49764 6.58628 2.60373 6.78334 2.79545L12.6941 8.74952C12.89 8.94689 13 9.21456 13 9.49365C13 9.77273 12.89 10.0404 12.6941 10.2378L6.78334 16.1918C6.5874 16.3892 6.32169 16.5 6.04463 16.5C5.76757 16.5 5.50186 16.3892 5.30592 16.1918Z"
        fill="#555555" />
</svg>