<svg width="24" height="24" viewBox="0 0 24 24" fill="none" xmlns="http://www.w3.org/2000/svg">
<path d="M14.5784 8.80745L14.5784 8.80749L10.8449 12.5419L9.41855 11.1164C9.41852 11.1164 9.41849 11.1164 9.41845 11.1163C8.93018 10.6282 8.13968 10.6282 7.65145 11.1164C7.16318 11.6047 7.16318 12.3963 7.65145 12.8846L9.96045 15.1936C10.2049 15.438 10.5246 15.56 10.845 15.56C11.1647 15.56 11.4844 15.4377 11.7286 15.1936L16.3466 10.5756C16.8348 10.0873 16.8348 9.29571 16.3466 8.80745C15.8583 8.31918 15.0667 8.31918 14.5784 8.80745ZM3 12C3 7.03814 7.03814 3 12 3C16.9619 3 21 7.03814 21 12C21 16.9628 16.9619 21 12 21C7.03811 21 3 16.9628 3 12Z" fill="#079455" stroke="#079455"/>
</svg>
