<svg width="46" height="46" viewBox="0 0 46 46" fill="none" xmlns="http://www.w3.org/2000/svg">
<path fillRule="evenodd" clipRule="evenodd" d="M4.15501 4.49147C6.33105 2.15758 9.44234 0.833344 13.1606 0.833344H32.8415C36.5692 0.833344 39.6807 2.15714 41.8542 4.49217C44.0191 6.81776 45.1666 10.0514 45.1666 13.7282V32.2717C45.1666 35.9486 44.0191 39.1824 41.854 41.508C39.68 43.843 36.568 45.1667 32.8394 45.1667H13.1606C9.43289 45.1667 6.32097 43.843 4.14682 41.508C1.98142 39.1824 0.833252 35.9488 0.833252 32.2717V13.7282C0.833252 10.0498 1.98739 6.81631 4.15501 4.49147ZM15.3023 21.2323C14.3358 21.2323 13.5523 22.0158 13.5523 22.9823C13.5523 23.9487 14.3358 24.7323 15.3023 24.7323H30.7016C31.668 24.7323 32.4516 23.9487 32.4516 22.9823C32.4516 22.0158 31.668 21.2323 30.7016 21.2323H15.3023Z" fill="#FF3B42"/>
</svg>
