<svg width="48" height="48" viewBox="0 0 48 48" fill="none" xmlns="http://www.w3.org/2000/svg">
<path d="M34.8734 0.666656C42.8067 0.666656 47.3334 5.14666 47.3334 13.1033V34.8967C47.3334 42.8067 42.8301 47.3333 34.8967 47.3333H13.1034C5.14675 47.3333 0.666748 42.8067 0.666748 34.8967V13.1033C0.666748 5.14666 5.14675 0.666656 13.1034 0.666656H34.8734ZM23.9767 13.5233C22.9034 13.5233 22.0401 14.3867 22.0401 15.46V22.04H15.4367C14.9234 22.04 14.4334 22.25 14.0601 22.6C13.7101 22.9733 13.5001 23.461 13.5001 23.9767C13.5001 25.05 14.3634 25.9133 15.4367 25.9367H22.0401V32.54C22.0401 33.6133 22.9034 34.4767 23.9767 34.4767C25.0501 34.4767 25.9134 33.6133 25.9134 32.54V25.9367H32.5401C33.6134 25.9133 34.4767 25.05 34.4767 23.9767C34.4767 22.9033 33.6134 22.04 32.5401 22.04H25.9134V15.46C25.9134 14.3867 25.0501 13.5233 23.9767 13.5233Z" fill="#FF3B42"/>
</svg>
