<svg width="24" height="24" viewBox="0 0 24 24" fill="none" xmlns="http://www.w3.org/2000/svg">
<path d="M19.1454 9.44212L19.1432 9.46557V9.47819C19.1432 9.47782 19.1432 9.47762 19.1431 9.47762C19.1429 9.47761 19.142 9.49382 19.1385 9.54061C19.1346 9.5936 19.1287 9.67024 19.1212 9.76821C19.1061 9.964 19.0841 10.2435 19.0567 10.5861C19.0021 11.2713 18.926 12.2082 18.8404 13.2315C18.6691 15.2801 18.4602 17.6686 18.3087 19.0804C18.2237 19.8551 17.9373 20.4364 17.5244 20.8257C17.1129 21.2138 16.5366 21.4484 15.8008 21.4611L15.7982 21.4611C14.5084 21.49 13.247 21.5 12.0038 21.5C10.6836 21.5 9.39437 21.49 8.14404 21.4611C7.44177 21.4443 6.87798 21.2066 6.47086 20.8147C6.06203 20.4211 5.77816 19.84 5.69803 19.0815L5.69779 19.0794C5.54204 17.6634 5.33345 15.2756 5.1622 13.2278C5.07667 12.205 5.00061 11.269 4.94532 10.5842C4.93352 10.4382 4.92255 10.3018 4.91255 10.1775C4.8837 9.81902 4.86294 9.56112 4.85394 9.4614C4.85127 9.38553 4.87396 9.31858 4.92094 9.26129C4.9599 9.2204 5.01437 9.19713 5.06852 9.19713H18.9391C18.9808 9.19713 19.033 9.21228 19.0915 9.26751C19.1358 9.32517 19.1509 9.3841 19.1454 9.44212ZM8.35842 4.33741L8.35846 4.33722L8.50943 3.66295C8.6956 2.94581 9.28566 2.5 9.93527 2.5H14.0647C14.7124 2.5 15.3057 2.9536 15.4811 3.61506L15.6423 4.33548C15.6424 4.33553 15.6424 4.33558 15.6424 4.33564C15.8238 5.15118 16.5357 5.74297 17.3714 5.74297H20.2871C20.3909 5.74297 20.5 5.83295 20.5 5.97696V6.35696C20.5 6.49546 20.3865 6.59095 20.2871 6.59095H3.71385C3.61302 6.59095 3.5 6.49501 3.5 6.35696V5.97696C3.5 5.83339 3.60864 5.74297 3.71385 5.74297H6.62957C7.46456 5.74297 8.1759 5.15108 8.35842 4.33741Z" fill="#D92D20" stroke="#D92D20"/>
</svg>
